<?xml version="1.0" encoding="UTF-8" standalone="no"?>
<svg
   xmlns:dc="http://purl.org/dc/elements/1.1/"
   xmlns:cc="http://creativecommons.org/ns#"
   xmlns:rdf="http://www.w3.org/1999/02/22-rdf-syntax-ns#"
   xmlns:svg="http://www.w3.org/2000/svg"
   xmlns="http://www.w3.org/2000/svg"
   xmlns:sodipodi="http://sodipodi.sourceforge.net/DTD/sodipodi-0.dtd"
   xmlns:inkscape="http://www.inkscape.org/namespaces/inkscape"
   version="1.1"
   id="svg2"
   viewBox="0 0 1771.6535 1771.6535"
   height="500mm"
   width="500mm"
   inkscape:version="0.91 r13725"
   sodipodi:docname="magic-circle.svg">
  <sodipodi:namedview
     pagecolor="#ffffff"
     bordercolor="#666666"
     borderopacity="1"
     objecttolerance="10"
     gridtolerance="10"
     guidetolerance="10"
     inkscape:pageopacity="0"
     inkscape:pageshadow="2"
     inkscape:window-width="1399"
     inkscape:window-height="855"
     id="namedview4144"
     showgrid="false"
     inkscape:zoom="0.12991437"
     inkscape:cx="-296.14994"
     inkscape:cy="733.76086"
     inkscape:window-x="41"
     inkscape:window-y="1"
     inkscape:window-maximized="1"
     inkscape:current-layer="svg2" />
  <defs
     id="defs4" />
  <metadata
     id="metadata7">
    <rdf:RDF>
      <cc:Work
         rdf:about="">
        <dc:format>image/svg+xml</dc:format>
        <dc:type
           rdf:resource="http://purl.org/dc/dcmitype/StillImage" />
        <dc:title />
      </cc:Work>
    </rdf:RDF>
  </metadata>
  <rect
     style="fill:#ffffff;fill-opacity:1;stroke:none;stroke-width:100;stroke-linejoin:miter;stroke-miterlimit:4;stroke-dasharray:none;stroke-dashoffset:0;stroke-opacity:1"
     id="rect4161"
     width="2999.9998"
     height="2999.9998"
     x="-1066.7211"
     y="-299.00717" />
  <path
     style="fill:#e55000;fill-opacity:1;stroke:#000000;stroke-width:29.99999642;stroke-linejoin:miter;stroke-miterlimit:4;stroke-dasharray:none;stroke-dashoffset:0;stroke-opacity:1"
     d="M 433.27881,624.44389 266.1499,913.9185 l 167.12891,0 167.12891,0 -167.12891,-289.47461 z m 167.12891,289.47461 82.17773,142.3359 83.56445,144.7383 165.74224,-287.0742 -331.48442,0 z m 165.74218,287.0742 -83.56445,144.7383 -82.17773,142.3359 331.48442,0 -165.74224,-287.0742 z m -165.74218,287.0742 -167.12891,0 -167.12891,0 167.12891,289.4746 167.12891,-289.4746 z m -334.25782,0 -82.17773,-142.3359 -83.56445,-144.7383 -165.742192,287.0742 331.484372,0 z m -165.74218,-287.0742 83.56445,-144.7383 82.17773,-142.3359 -331.484372,0 165.742192,287.0742 z"
     id="path4142"
     inkscape:connector-curvature="0" />
  <path
     style="fill:none;fill-opacity:1;stroke:#000000;stroke-width:83.02481079;stroke-linejoin:miter;stroke-miterlimit:4;stroke-dasharray:none;stroke-dashoffset:0;stroke-opacity:1"
     id="path4159"
     d="m 865.70547,1949.9777 -864.853395,0 -432.426655,-748.985 432.426728,-748.98504 864.853402,5e-5 432.42665,748.98499 z"
     inkscape:connector-curvature="0" />
</svg>
