# This file uses centimeters as units for non-parametric coordinates.

mtllib dia.mtl
g default
v 0.000000 0.000000 0.000000
v 0.191525 0.592815 -0.191523
v 0.000000 0.592815 -0.270855
v -0.191523 0.592815 -0.191525
v -0.270855 0.592815 -0.000000
v -0.191525 0.592815 0.191523
v -0.000000 0.592815 0.270855
v 0.191523 0.592815 0.191523
v 0.270855 0.592815 0.000000
v -0.000000 0.592815 0.000000
v 0.461941 0.425096 -0.191341
v 0.461941 0.442311 -0.191341
v 0.353554 0.442312 -0.353554
v 0.353554 0.425096 -0.353554
v 0.191341 0.442313 -0.461941
v 0.191341 0.425097 -0.461941
v 0.000000 0.442311 -0.500000
v 0.000000 0.425095 -0.500000
v -0.191341 0.442311 -0.461941
v -0.191341 0.425097 -0.461941
v -0.353554 0.442311 -0.353554
v -0.353554 0.425096 -0.353554
v -0.461941 0.442311 -0.191341
v -0.461941 0.425096 -0.191341
v -0.500000 0.442313 -0.000000
v -0.500000 0.425097 -0.000000
v -0.461941 0.442311 0.191341
v -0.461941 0.425095 0.191341
v -0.353554 0.442311 0.353554
v -0.353554 0.425095 0.353554
v -0.191341 0.442311 0.461941
v -0.191341 0.425095 0.461941
v -0.000000 0.442311 0.500000
v -0.000000 0.425095 0.500000
v 0.191341 0.442311 0.461941
v 0.191341 0.425095 0.461941
v 0.353554 0.442311 0.353554
v 0.353554 0.425095 0.353554
v 0.461941 0.442311 0.191341
v 0.461941 0.425095 0.191341
v 0.500000 0.442313 -0.000000
v 0.500000 0.425097 -0.000000
v 0.383179 0.518730 -0.158399
v 0.383179 0.518730 0.158399
v 0.158399 0.518730 0.383179
v -0.158400 0.518730 0.383179
v -0.383179 0.518730 0.158399
v -0.383179 0.518730 -0.158399
v -0.158399 0.518730 -0.383179
v 0.158400 0.518730 -0.383179
v 0.159336 0.135437 -0.063795
v 0.159336 0.135437 0.063795
v 0.063795 0.135437 0.159336
v -0.063795 0.135437 0.159336
v -0.159336 0.135437 0.063795
v -0.159336 0.135437 -0.063795
v -0.063795 0.135437 -0.159336
v 0.063795 0.135437 -0.159336
vt 0.610485 0.733265
vt 0.500000 0.687500
vt 0.389515 0.733265
vt 0.343750 0.843750
vt 0.389515 0.954235
vt 0.500000 1.000000
vt 0.610485 0.954235
vt 0.656250 0.843750
vt 0.500000 0.837500
vt 0.622325 0.496448
vt 0.375000 0.509867
vt 0.390625 0.509867
vt 0.406250 0.509867
vt 0.390625 0.688440
vt 0.421875 0.509867
vt 0.437500 0.509867
vt 0.421875 0.688440
vt 0.453125 0.509868
vt 0.468750 0.509867
vt 0.453125 0.688440
vt 0.484375 0.509867
vt 0.500000 0.509868
vt 0.484375 0.688440
vt 0.515625 0.509867
vt 0.531250 0.509867
vt 0.515625 0.688440
vt 0.546875 0.509867
vt 0.562500 0.509868
vt 0.546875 0.688440
vt 0.578125 0.509867
vt 0.593750 0.509867
vt 0.578125 0.688440
vt 0.609375 0.509867
vt 0.625000 0.509867
vt 0.609375 0.688440
vt 0.377675 0.496448
vt 0.392965 0.496448
vt 0.408256 0.496448
vt 0.423547 0.496448
vt 0.438837 0.496448
vt 0.454128 0.496448
vt 0.469419 0.496448
vt 0.484709 0.496448
vt 0.500000 0.496448
vt 0.515291 0.496448
vt 0.530581 0.496448
vt 0.545872 0.496448
vt 0.561163 0.496448
vt 0.576453 0.496448
vt 0.500000 0.312500
vt 0.591744 0.496448
vt 0.607034 0.496448
vt 0.375000 0.599154
vt 0.625000 0.599154
vt 0.593750 0.599154
vt 0.562500 0.599154
vt 0.531250 0.599154
vt 0.500000 0.599154
vt 0.468750 0.599154
vt 0.437500 0.599154
vt 0.406250 0.599154
vt 0.459225 0.373816
vt 0.540775 0.373816
vt 0.530581 0.373816
vt 0.520388 0.373816
vt 0.510194 0.373816
vt 0.500000 0.373816
vt 0.489806 0.373816
vt 0.479612 0.373816
vt 0.469419 0.373816
vn 0.000000 1.000000 -0.000000
vn 0.000000 1.000000 -0.000000
vn 0.000000 1.000000 -0.000000
vn 0.000000 1.000000 -0.000000
vn 0.000000 1.000000 -0.000000
vn 0.000000 1.000000 -0.000000
vn 0.000000 1.000000 0.000000
vn 0.000000 1.000000 0.000000
vn 0.000000 1.000000 0.000000
vn 0.000000 1.000000 0.000000
vn 0.000000 1.000000 0.000000
vn 0.000000 1.000000 0.000000
vn 0.000000 1.000000 -0.000000
vn 0.000000 1.000000 -0.000000
vn 0.000000 1.000000 -0.000000
vn 0.000000 1.000000 0.000000
vn 0.000000 1.000000 0.000000
vn 0.000000 1.000000 0.000000
vn 0.000000 1.000000 0.000000
vn 0.000000 1.000000 0.000000
vn 0.000000 1.000000 0.000000
vn 0.000000 1.000000 0.000000
vn 0.000000 1.000000 0.000000
vn 0.000000 1.000000 0.000000
vn 0.980786 0.000000 -0.195086
vn 0.980786 0.000000 -0.195086
vn 0.980786 0.000000 -0.195086
vn 0.980786 0.000000 -0.195086
vn 0.831469 0.000000 -0.555571
vn 0.831469 0.000000 -0.555570
vn 0.831469 0.000000 -0.555571
vn 0.831469 0.000000 -0.555571
vn 0.555571 0.000000 -0.831469
vn 0.555571 0.000000 -0.831469
vn 0.555571 0.000000 -0.831469
vn 0.555571 0.000000 -0.831469
vn 0.195085 0.000000 -0.980786
vn 0.195085 0.000000 -0.980786
vn 0.195085 0.000000 -0.980786
vn 0.195085 0.000000 -0.980786
vn -0.195086 -0.000000 -0.980786
vn -0.195086 -0.000000 -0.980786
vn -0.195086 -0.000000 -0.980786
vn -0.195086 -0.000000 -0.980786
vn -0.555571 0.000000 -0.831469
vn -0.555571 0.000000 -0.831469
vn -0.555571 0.000000 -0.831469
vn -0.555571 0.000000 -0.831469
vn -0.831469 0.000000 -0.555571
vn -0.831469 0.000000 -0.555571
vn -0.831469 0.000000 -0.555571
vn -0.831469 0.000000 -0.555571
vn -0.980786 0.000000 -0.195086
vn -0.980786 0.000000 -0.195086
vn -0.980786 0.000000 -0.195086
vn -0.980786 0.000000 -0.195086
vn -0.980786 0.000000 0.195086
vn -0.980786 0.000000 0.195086
vn -0.980786 0.000000 0.195086
vn -0.980786 0.000000 0.195086
vn -0.831469 0.000000 0.555571
vn -0.831469 0.000000 0.555571
vn -0.831469 0.000000 0.555571
vn -0.831469 0.000000 0.555571
vn -0.555571 0.000000 0.831469
vn -0.555571 0.000000 0.831469
vn -0.555571 0.000000 0.831469
vn -0.555571 0.000000 0.831469
vn -0.195086 0.000000 0.980786
vn -0.195086 0.000000 0.980786
vn -0.195086 0.000000 0.980786
vn -0.195086 0.000000 0.980786
vn 0.195085 0.000000 0.980786
vn 0.195085 0.000000 0.980786
vn 0.195085 0.000000 0.980786
vn 0.195085 0.000000 0.980786
vn 0.555571 0.000000 0.831469
vn 0.555571 0.000000 0.831469
vn 0.555571 0.000000 0.831469
vn 0.555571 0.000000 0.831469
vn 0.831469 0.000000 0.555571
vn 0.831469 0.000000 0.555571
vn 0.831469 0.000000 0.555571
vn 0.831469 0.000000 0.555571
vn 0.980786 0.000000 0.195085
vn 0.980786 0.000000 0.195085
vn 0.980786 0.000000 0.195085
vn 0.980786 0.000000 0.195085
vn 0.388189 0.835835 -0.388187
vn 0.388189 0.835835 -0.388187
vn 0.388189 0.835835 -0.388187
vn 0.388189 0.835835 -0.388187
vn -0.000000 0.835834 -0.548982
vn -0.000000 0.835834 -0.548982
vn -0.000000 0.835834 -0.548982
vn -0.000000 0.835834 -0.548982
vn -0.388189 0.835834 -0.388189
vn -0.388189 0.835834 -0.388189
vn -0.388189 0.835834 -0.388189
vn -0.388189 0.835834 -0.388189
vn -0.548979 0.835836 0.000000
vn -0.548979 0.835836 0.000000
vn -0.548979 0.835836 0.000000
vn -0.548979 0.835836 0.000000
vn -0.388190 0.835834 0.388188
vn -0.388190 0.835834 0.388188
vn -0.388190 0.835834 0.388188
vn -0.388190 0.835834 0.388188
vn -0.000000 0.835834 0.548982
vn -0.000000 0.835834 0.548982
vn -0.000000 0.835834 0.548982
vn -0.000000 0.835834 0.548982
vn 0.388187 0.835836 0.388187
vn 0.388187 0.835836 0.388187
vn 0.388187 0.835836 0.388187
vn 0.388187 0.835836 0.388187
vn 0.548978 0.835837 -0.000000
vn 0.548978 0.835837 -0.000000
vn 0.548978 0.835837 -0.000000
vn 0.548978 0.835837 -0.000000
vn 0.458016 -0.761868 -0.458016
vn 0.458016 -0.761868 -0.458016
vn 0.458016 -0.761868 -0.458016
vn 0.458016 -0.761868 -0.458016
vn 0.000000 -0.761868 -0.647733
vn 0.000000 -0.761868 -0.647733
vn 0.000000 -0.761868 -0.647733
vn 0.000000 -0.761868 -0.647733
vn -0.458016 -0.761868 -0.458016
vn -0.458016 -0.761868 -0.458016
vn -0.458016 -0.761868 -0.458016
vn -0.458016 -0.761868 -0.458016
vn -0.647734 -0.761867 0.000000
vn -0.647734 -0.761867 0.000000
vn -0.647734 -0.761867 0.000000
vn -0.647734 -0.761867 0.000000
vn -0.458016 -0.761868 0.458016
vn -0.458016 -0.761868 0.458016
vn -0.458016 -0.761868 0.458016
vn -0.458016 -0.761868 0.458016
vn -0.000000 -0.761868 0.647733
vn -0.000000 -0.761868 0.647733
vn -0.000000 -0.761868 0.647733
vn -0.000000 -0.761868 0.647733
vn 0.458016 -0.761868 0.458016
vn 0.458016 -0.761868 0.458016
vn 0.458016 -0.761868 0.458016
vn 0.458016 -0.761868 0.458016
vn 0.647734 -0.761867 0.000000
vn 0.647734 -0.761867 0.000000
vn 0.647734 -0.761867 0.000000
vn 0.647734 -0.761867 0.000000
vn 0.379598 0.911693 -0.157233
vn 0.379598 0.911692 -0.157233
vn 0.379598 0.911692 -0.157233
vn 0.379595 0.911693 0.157236
vn 0.379595 0.911693 0.157236
vn 0.379595 0.911693 0.157236
vn 0.157236 0.911693 0.379595
vn 0.157236 0.911693 0.379595
vn 0.157236 0.911693 0.379595
vn -0.157234 0.911693 0.379596
vn -0.157234 0.911693 0.379596
vn -0.157234 0.911693 0.379596
vn -0.379598 0.911692 0.157233
vn -0.379598 0.911692 0.157233
vn -0.379598 0.911692 0.157233
vn -0.379596 0.911693 -0.157235
vn -0.379596 0.911693 -0.157235
vn -0.379596 0.911693 -0.157235
vn -0.157233 0.911692 -0.379598
vn -0.157233 0.911692 -0.379598
vn -0.157233 0.911693 -0.379598
vn 0.157234 0.911693 -0.379596
vn 0.157234 0.911693 -0.379596
vn 0.157234 0.911693 -0.379596
vn -0.131560 0.738399 0.661406
vn -0.131560 0.738399 0.661406
vn -0.131560 0.738400 0.661406
vn 0.131559 0.738400 0.661406
vn 0.131559 0.738400 0.661406
vn 0.131559 0.738400 0.661406
vn 0.374376 0.738861 0.560293
vn 0.374376 0.738861 0.560293
vn 0.374376 0.738861 0.560293
vn 0.560292 0.738861 0.374376
vn 0.560291 0.738861 0.374376
vn 0.560291 0.738861 0.374376
vn 0.661403 0.738401 0.131565
vn 0.661403 0.738401 0.131564
vn 0.661403 0.738401 0.131564
vn 0.661402 0.738402 -0.131564
vn 0.661403 0.738402 -0.131564
vn 0.661402 0.738402 -0.131564
vn 0.560291 0.738862 -0.374375
vn 0.560291 0.738862 -0.374375
vn 0.560291 0.738862 -0.374375
vn 0.374377 0.738866 -0.560286
vn 0.374377 0.738866 -0.560286
vn 0.374377 0.738866 -0.560286
vn 0.131552 0.738406 -0.661400
vn 0.131552 0.738406 -0.661400
vn 0.131552 0.738406 -0.661400
vn -0.131557 0.738402 -0.661404
vn -0.131557 0.738402 -0.661404
vn -0.131557 0.738402 -0.661404
vn -0.374376 0.738863 -0.560290
vn -0.374376 0.738863 -0.560290
vn -0.374376 0.738863 -0.560290
vn -0.560291 0.738861 -0.374376
vn -0.560291 0.738861 -0.374376
vn -0.560291 0.738861 -0.374376
vn -0.661403 0.738401 -0.131563
vn -0.661403 0.738401 -0.131563
vn -0.661403 0.738401 -0.131563
vn -0.661404 0.738401 0.131563
vn -0.661404 0.738401 0.131563
vn -0.661404 0.738401 0.131563
vn -0.560292 0.738861 0.374376
vn -0.560292 0.738861 0.374376
vn -0.560291 0.738861 0.374376
vn -0.374377 0.738859 0.560294
vn -0.374377 0.738859 0.560294
vn -0.374377 0.738859 0.560294
vn 0.555627 -0.743939 -0.371259
vn 0.555627 -0.743939 -0.371259
vn 0.555627 -0.743939 -0.371259
vn 0.656304 -0.743118 -0.130540
vn 0.656304 -0.743118 -0.130540
vn 0.656304 -0.743118 -0.130540
vn 0.656304 -0.743118 0.130538
vn 0.656304 -0.743118 0.130538
vn 0.656304 -0.743118 0.130538
vn 0.555627 -0.743939 0.371258
vn 0.555627 -0.743939 0.371258
vn 0.555627 -0.743939 0.371258
vn 0.371259 -0.743939 0.555627
vn 0.371259 -0.743939 0.555627
vn 0.371259 -0.743939 0.555627
vn 0.130544 -0.743119 0.656302
vn 0.130544 -0.743119 0.656302
vn 0.130544 -0.743119 0.656302
vn -0.130544 -0.743119 0.656302
vn -0.130544 -0.743119 0.656302
vn -0.130544 -0.743119 0.656302
vn -0.371259 -0.743939 0.555627
vn -0.371259 -0.743939 0.555627
vn -0.371259 -0.743939 0.555627
vn -0.555627 -0.743939 0.371258
vn -0.555627 -0.743939 0.371258
vn -0.555628 -0.743939 0.371258
vn -0.656304 -0.743118 0.130538
vn -0.656304 -0.743118 0.130538
vn -0.656304 -0.743118 0.130538
vn -0.656304 -0.743118 -0.130540
vn -0.656304 -0.743118 -0.130540
vn -0.656304 -0.743118 -0.130540
vn -0.555627 -0.743939 -0.371259
vn -0.555627 -0.743939 -0.371259
vn -0.555627 -0.743939 -0.371259
vn -0.371256 -0.743938 -0.555631
vn -0.371256 -0.743938 -0.555631
vn -0.371256 -0.743938 -0.555631
vn -0.130550 -0.743118 -0.656302
vn -0.130550 -0.743118 -0.656302
vn -0.130550 -0.743118 -0.656302
vn 0.130550 -0.743118 -0.656302
vn 0.130550 -0.743118 -0.656302
vn 0.130550 -0.743118 -0.656302
vn 0.371256 -0.743938 -0.555631
vn 0.371256 -0.743938 -0.555631
vn 0.371256 -0.743938 -0.555631
s off
g dia
usemtl initialShadingGroup
f 10/9/1 2/7/2 3/6/3
f 10/9/4 3/6/5 4/5/6
f 10/9/7 4/5/8 5/4/9
f 10/9/10 5/4/11 6/3/12
f 10/9/13 6/3/14 7/2/15
f 10/9/16 7/2/17 8/1/18
f 10/9/19 8/1/20 9/8/21
f 10/9/22 9/8/23 2/7/24
f 11/10/25 12/34/26 41/33/27 42/52/28
f 12/11/29 11/36/30 14/37/31 13/12/32
f 13/12/33 14/37/34 16/38/35 15/13/36
f 15/13/37 16/38/38 18/39/39 17/15/40
f 17/15/41 18/39/42 20/40/43 19/16/44
f 19/16/45 20/40/46 22/41/47 21/18/48
f 21/18/49 22/41/50 24/42/51 23/19/52
f 23/19/53 24/42/54 26/43/55 25/21/56
f 25/21/57 26/43/58 28/44/59 27/22/60
f 27/22/61 28/44/62 30/45/63 29/24/64
f 29/24/65 30/45/66 32/46/67 31/25/68
f 31/25/69 32/46/70 34/47/71 33/27/72
f 33/27/73 34/47/74 36/48/75 35/28/76
f 35/28/77 36/48/78 38/49/79 37/30/80
f 37/30/81 38/49/82 40/51/83 39/31/84
f 39/31/85 40/51/86 42/52/87 41/33/88
f 2/14/89 43/53/90 13/12/91 50/61/92
f 3/17/93 50/61/94 17/15/95 49/60/96
f 4/20/97 49/60/98 21/18/99 48/59/100
f 5/23/101 48/59/102 25/21/103 47/58/104
f 6/26/105 47/58/106 29/24/107 46/57/108
f 7/29/109 46/57/110 33/27/111 45/56/112
f 8/32/113 45/56/114 37/30/115 44/55/116
f 9/35/117 44/55/118 41/33/119 43/54/120
f 14/37/121 51/62/122 1/50/123 58/70/124
f 18/39/125 58/70/126 1/50/127 57/69/128
f 22/41/129 57/69/130 1/50/131 56/68/132
f 26/43/133 56/68/134 1/50/135 55/67/136
f 30/45/137 55/67/138 1/50/139 54/66/140
f 34/47/141 54/66/142 1/50/143 53/65/144
f 38/49/145 53/65/146 1/50/147 52/64/148
f 42/52/149 52/64/150 1/50/151 51/63/152
f 43/53/153 2/14/154 9/35/155
f 9/35/156 8/32/157 44/55/158
f 8/32/159 7/29/160 45/56/161
f 7/29/162 6/26/163 46/57/164
f 6/26/165 5/23/166 47/58/167
f 5/23/168 4/20/169 48/59/170
f 4/20/171 3/17/172 49/60/173
f 3/17/174 2/14/175 50/61/176
f 31/25/177 33/27/178 46/57/179
f 33/27/180 35/28/181 45/56/182
f 35/28/183 37/30/184 45/56/185
f 37/30/186 39/31/187 44/55/188
f 39/31/189 41/33/190 44/55/191
f 41/33/192 12/34/193 43/54/194
f 12/11/195 13/12/196 43/53/197
f 13/12/198 15/13/199 50/61/200
f 15/13/201 17/15/202 50/61/203
f 17/15/204 19/16/205 49/60/206
f 19/16/207 21/18/208 49/60/209
f 21/18/210 23/19/211 48/59/212
f 23/19/213 25/21/214 48/59/215
f 25/21/216 27/22/217 47/58/218
f 27/22/219 29/24/220 47/58/221
f 29/24/222 31/25/223 46/57/224
f 51/62/225 14/37/226 11/36/227
f 42/52/228 51/63/229 11/10/230
f 52/64/231 42/52/232 40/51/233
f 38/49/234 52/64/235 40/51/236
f 53/65/237 38/49/238 36/48/239
f 34/47/240 53/65/241 36/48/242
f 54/66/243 34/47/244 32/46/245
f 30/45/246 54/66/247 32/46/248
f 55/67/249 30/45/250 28/44/251
f 26/43/252 55/67/253 28/44/254
f 56/68/255 26/43/256 24/42/257
f 22/41/258 56/68/259 24/42/260
f 57/69/261 22/41/262 20/40/263
f 18/39/264 57/69/265 20/40/266
f 58/70/267 18/39/268 16/38/269
f 14/37/270 58/70/271 16/38/272
